<?xml version="1.0" encoding="iso-8859-1"?>
<!-- Uploaded to: SVG Repo, www.svgrepo.com, Generator: SVG Repo Mixer Tools -->
<!DOCTYPE svg PUBLIC "-//W3C//DTD SVG 1.1//EN" "http://www.w3.org/Graphics/SVG/1.1/DTD/svg11.dtd">
<svg fill="#000000" version="1.1" id="Capa_1" xmlns="http://www.w3.org/2000/svg" xmlns:xlink="http://www.w3.org/1999/xlink" 
	 width="800px" height="800px" viewBox="0 0 474.384 474.384"
	 xml:space="preserve">
<g>
	<g>
		<path d="M287.431,162.396l27.234-9.94c17.963-4.047,30.498-19.728,30.498-38.137c0-21.573-17.553-39.116-39.117-39.116
			c-4.646,0-9.208,0.816-13.554,2.433c-0.524-0.042-1.008,0.05-1.454,0.275c-1.324,0.652-2.745,0.987-4.221,0.987
			c-5.208,0-9.449-4.233-9.449-9.443V39.02c0-9.065-3.171-17.898-8.934-24.882c-1.587-1.918-3.371-3.704-5.287-5.299
			c-1.932-1.59-4.031-3.01-6.235-4.209c-11.372-6.171-25.933-6.171-37.298,0c-2.205,1.205-4.31,2.619-6.236,4.215
			c-1.923,1.59-3.698,3.376-5.294,5.294c-5.756,6.984-8.929,15.817-8.929,24.882v30.437c0,5.21-4.233,9.443-9.449,9.443
			c-1.472,0-2.897-0.335-4.215-0.987c-0.406-0.204-0.848-0.27-1.289-0.204c-4.401-1.667-9.031-2.504-13.746-2.504
			c-21.574,0-39.115,17.555-39.115,39.116c0,18.404,12.541,34.089,30.16,38.041l27.565,10.031c3.307,1.205,6.098,3.494,7.909,6.504
			v15.854l-0.042,0.338c-2.801,4.536-7.795,7.336-13.155,7.336l-0.784-0.021c-0.161-0.005-0.339,0-0.488,0.031
			c-4.189-1.359-8.57-2.212-12.812-1.902h-0.563c-0.294-0.021-0.57-0.038-0.865-0.038c-21.582,0-39.123,17.558-39.123,39.116
			c0,18.416,12.541,34.101,30.168,38.038l27.564,10.037c5.627,2.047,9.588,7.259,10.083,13.06l0.005,2.205
			c-0.091,1.784-0.343,3.249-0.829,4.587c-2.218,6.09-8.068,10.189-14.549,10.189l-0.784-0.021c-0.168-0.011-0.339,0-0.496,0.031
			c-3.929-1.285-7.971-1.922-12.024-1.922c-21.583,0-39.119,17.545-39.119,39.109c0,18.152,12.212,33.68,29.798,37.968
			c0.089,0.043,0.176,0.08,0.273,0.111l74.18,26.042v62.652c0,1.484,1.21,2.687,2.688,2.687c1.486,0,2.687-1.202,2.687-2.687V409.05
			l74.188-26.037c0.096-0.031,0.169-0.072,0.263-0.11c17.586-4.294,29.796-19.826,29.796-37.968
			c0-21.575-17.544-39.114-39.108-39.114c-4.042,0-8.074,0.636-11.995,1.916c-0.167-0.021-0.341-0.031-0.52-0.021l-0.787,0.021
			c-6.487,0-12.336-4.105-14.551-10.189c-0.483-1.333-0.756-2.798-0.831-4.452l-0.01-2.114c0.399-4.777,3.029-9.128,7.05-11.728
			l32.903-11.532c0.085-0.037,0.174-0.078,0.263-0.117c17.58-4.298,29.796-19.825,29.796-37.967
			c0-21.57-17.549-39.121-39.104-39.121c-0.252,0-0.499,0.021-1.133,0.039c-4.21-0.286-8.632,0.473-12.856,1.816
			c-6.314-0.276-11.731-4.206-13.89-10.129c-0.482-1.333-0.75-2.791-0.83-4.454l-0.011-2.108
			C277.841,169.66,281.814,164.444,287.431,162.396z"/>
	</g>
</g>
</svg>